<?xml version="1.0" encoding="UTF-8" standalone="no"?>
<!-- Created with Inkscape (http://www.inkscape.org/) -->

<svg
   xmlns:dc="http://purl.org/dc/elements/1.1/"
   xmlns:cc="http://creativecommons.org/ns#"
   xmlns:rdf="http://www.w3.org/1999/02/22-rdf-syntax-ns#"
   xmlns:svg="http://www.w3.org/2000/svg"
   xmlns="http://www.w3.org/2000/svg"
   xmlns:sodipodi="http://sodipodi.sourceforge.net/DTD/sodipodi-0.dtd"
   xmlns:inkscape="http://www.inkscape.org/namespaces/inkscape"
   width="800"
   height="800"
   id="svg2"
   version="1.1"
   inkscape:version="0.48.3.1 r9886"
   sodipodi:docname="clear_selection.svg"
   inkscape:export-filename="/home/gyaikhom/work/yaikhom/projects/phenodcc-qualitycontrol/src/main/webapp/resources/images/phenodcc/clear_selection.png"
   inkscape:export-xdpi="2.7"
   inkscape:export-ydpi="2.7">
  <defs
     id="defs4" />
  <sodipodi:namedview
     id="base"
     pagecolor="#ffffff"
     bordercolor="#666666"
     borderopacity="1.0"
     inkscape:pageopacity="0.0"
     inkscape:pageshadow="2"
     inkscape:zoom="1.007467"
     inkscape:cx="182.17825"
     inkscape:cy="409.26248"
     inkscape:document-units="px"
     inkscape:current-layer="layer1"
     showgrid="false"
     inkscape:window-width="1600"
     inkscape:window-height="1151"
     inkscape:window-x="0"
     inkscape:window-y="0"
     inkscape:window-maximized="1">
    <inkscape:grid
       type="xygrid"
       id="grid2985"
       empspacing="5"
       visible="true"
       enabled="true"
       snapvisiblegridlinesonly="true" />
  </sodipodi:namedview>
  <metadata
     id="metadata7">
    <rdf:RDF>
      <cc:Work
         rdf:about="">
        <dc:format>image/svg+xml</dc:format>
        <dc:type
           rdf:resource="http://purl.org/dc/dcmitype/StillImage" />
        <dc:title></dc:title>
      </cc:Work>
    </rdf:RDF>
  </metadata>
  <g
     inkscape:label="Layer 1"
     inkscape:groupmode="layer"
     id="layer1"
     transform="translate(0,-252.3622)">
    <path
       sodipodi:type="arc"
       style="opacity:0.98999999;fill:#9a9a9a;fill-opacity:1;stroke:#8e8e8e;stroke-width:0;stroke-miterlimit:4;stroke-opacity:1;stroke-dasharray:none"
       id="path6694"
       sodipodi:cx="127.5476"
       sodipodi:cy="179.13599"
       sodipodi:rx="59.059006"
       sodipodi:ry="56.081242"
       d="m 186.60661,179.13599 c 0,30.97281 -26.44162,56.08124 -59.05901,56.08124 -32.617388,0 -59.059006,-25.10843 -59.059006,-56.08124 0,-30.97282 26.441618,-56.08125 59.059006,-56.08125 32.61739,0 59.05901,25.10843 59.05901,56.08125 z"
       transform="matrix(1.6932219,0,0,1.7831274,-47.477792,68.157134)" />
    <path
       sodipodi:type="arc"
       style="opacity:0.98999999;fill:#9a9a9a;fill-opacity:1;stroke:#8e8e8e;stroke-width:0;stroke-miterlimit:4;stroke-opacity:1;stroke-dasharray:none"
       id="path6694-1"
       sodipodi:cx="127.5476"
       sodipodi:cy="179.13599"
       sodipodi:rx="59.059006"
       sodipodi:ry="56.081242"
       d="m 186.60661,179.13599 c 0,30.97281 -26.44162,56.08124 -59.05901,56.08124 -32.617388,0 -59.059006,-25.10843 -59.059006,-56.08124 0,-30.97282 26.441618,-56.08125 59.059006,-56.08125 32.61739,0 59.05901,25.10843 59.05901,56.08125 z"
       transform="matrix(1.6932219,0,0,1.7831274,436.16415,293.22327)" />
    <path
       sodipodi:type="arc"
       style="opacity:0.98999999;fill:#9a9a9a;fill-opacity:1;stroke:#8e8e8e;stroke-width:0;stroke-miterlimit:4;stroke-opacity:1;stroke-dasharray:none"
       id="path6694-5"
       sodipodi:cx="127.5476"
       sodipodi:cy="179.13599"
       sodipodi:rx="59.059006"
       sodipodi:ry="56.081242"
       d="m 186.60661,179.13599 c 0,30.97281 -26.44162,56.08124 -59.05901,56.08124 -32.617388,0 -59.059006,-25.10843 -59.059006,-56.08124 0,-30.97282 26.441618,-56.08125 59.059006,-56.08125 32.61739,0 59.05901,25.10843 59.05901,56.08125 z"
       transform="matrix(1.6932219,0,0,1.7831274,-54.174493,580.08131)" />
    <path
       sodipodi:type="arc"
       style="opacity:0.98999999;fill:#9a9a9a;fill-opacity:1;stroke:#8e8e8e;stroke-width:0;stroke-miterlimit:4;stroke-opacity:1;stroke-dasharray:none"
       id="path6694-0"
       sodipodi:cx="127.5476"
       sodipodi:cy="179.13599"
       sodipodi:rx="59.059006"
       sodipodi:ry="56.081242"
       d="m 186.60661,179.13599 c 0,30.97281 -26.44162,56.08124 -59.05901,56.08124 -32.617388,0 -59.059006,-25.10843 -59.059006,-56.08124 0,-30.97282 26.441618,-56.08125 59.059006,-56.08125 32.61739,0 59.05901,25.10843 59.05901,56.08125 z"
       transform="matrix(1.6932219,0,0,1.7831274,402.41615,546.3333)" />
    <path
       sodipodi:type="arc"
       style="opacity:0.98999999;fill:#9a9a9a;fill-opacity:1;stroke:#8e8e8e;stroke-width:0;stroke-miterlimit:4;stroke-opacity:1;stroke-dasharray:none"
       id="path6694-6"
       sodipodi:cx="127.5476"
       sodipodi:cy="179.13599"
       sodipodi:rx="59.059006"
       sodipodi:ry="56.081242"
       d="m 186.60661,179.13599 c 0,30.97281 -26.44162,56.08124 -59.05901,56.08124 -32.617388,0 -59.059006,-25.10843 -59.059006,-56.08124 0,-30.97282 26.441618,-56.08125 59.059006,-56.08125 32.61739,0 59.05901,25.10843 59.05901,56.08125 z"
       transform="matrix(1.6932219,0,0,1.7831274,138.38765,305.13434)" />
  </g>
</svg>
