<?xml version="1.0" encoding="UTF-8" standalone="no"?>
<!-- Created with Inkscape (http://www.inkscape.org/) -->

<svg
   xmlns:dc="http://purl.org/dc/elements/1.1/"
   xmlns:cc="http://creativecommons.org/ns#"
   xmlns:rdf="http://www.w3.org/1999/02/22-rdf-syntax-ns#"
   xmlns:svg="http://www.w3.org/2000/svg"
   xmlns="http://www.w3.org/2000/svg"
   xmlns:sodipodi="http://sodipodi.sourceforge.net/DTD/sodipodi-0.dtd"
   xmlns:inkscape="http://www.inkscape.org/namespaces/inkscape"
   width="744.09448819"
   height="1052.3622047"
   id="svg3104"
   version="1.1"
   inkscape:version="0.48.3.1 r9886"
   sodipodi:docname="New document 9">
  <defs
     id="defs3106" />
  <sodipodi:namedview
     id="base"
     pagecolor="#ffffff"
     bordercolor="#666666"
     borderopacity="1.0"
     inkscape:pageopacity="0"
     inkscape:pageshadow="2"
     inkscape:zoom="1.4"
     inkscape:cx="405.60192"
     inkscape:cy="671.074"
     inkscape:document-units="px"
     inkscape:current-layer="layer1"
     showgrid="false"
     inkscape:window-width="1600"
     inkscape:window-height="1151"
     inkscape:window-x="1600"
     inkscape:window-y="0"
     inkscape:window-maximized="1" />
  <metadata
     id="metadata3109">
    <rdf:RDF>
      <cc:Work
         rdf:about="">
        <dc:format>image/svg+xml</dc:format>
        <dc:type
           rdf:resource="http://purl.org/dc/dcmitype/StillImage" />
        <dc:title></dc:title>
      </cc:Work>
    </rdf:RDF>
  </metadata>
  <g
     inkscape:label="Layer 1"
     inkscape:groupmode="layer"
     id="layer1">
    <path
       style="fill:none;stroke:#000000;stroke-width:1px;stroke-linecap:butt;stroke-linejoin:miter;stroke-opacity:1"
       d="m 83.571429,288.79075 c 11.020554,-26.54911 31.862501,-36.07863 50.000001,-50 3.70685,-3.39954 8.78531,-4.61851 7.85714,-10.71428 -0.27757,-6.5885 -3.20642,-14.15967 1.42857,-18.57143 4.1443,-4.36112 13.95316,-13.82452 18.57143,-13.57143 7.9648,-1.7173 8.68795,2.43769 5.71429,7.14286 -3.5114,2.95264 -5.606,7.36125 -6.94197,12.38839 -1.1093,4.57851 -2.88925,9.90547 -3.05803,14.90353 3.88024,-4.16456 8.19321,-12.74738 13.57143,-17.29192 5.37822,-4.54454 9.98132,-4.47354 15.71428,-6.42857 5.73296,-1.95503 14.96957,-2.29737 17.14286,3.57142 2.17329,5.86879 5.38896,6.61566 3.57143,20 -1.81753,13.38434 -11.47343,15.56082 -10,17.85715 7.56284,8.29251 14.24188,12.6748 24.28571,22.85714 2.75093,4.08899 4.62237,5.37096 8.57143,7.14286 4.76375,3.04752 9.46018,4.27345 14.28571,7.14285 8.50918,3.78031 10.46506,5.19449 21.42858,14.28572 10.96352,9.09123 10.58367,12.03939 15.71428,19.28571 1.44307,4.38664 6.40399,7.81039 7.14286,12.85715 3.03716,6.3222 2.46282,11.86146 3.57143,18.57142 1.24933,6.2792 0.14392,14.84043 1.42857,20.86335 0.9693,7.8974 1.59231,13.87297 2.14286,19.85094 12.19833,20.02931 42.00319,10.47474 45.71428,12.14285 16.10407,-1.10588 23.0064,-1.36693 34.28572,-5.71428 20.02332,-5.00778 27.05829,-10.24241 41.29502,-10.71428 17.15551,-1.35036 35.33024,-3.83695 52.72359,-1.42858 16.93788,0.1607 27.35102,3.47542 48.12424,7.85715 7.71836,2.01657 14.656,3.08581 23.00621,3.57143 12.35609,0.42282 23.81685,2.31721 36.24569,2.169 20.10056,-3.96961 11.13969,1.93274 6.46239,4.25957 -3.14191,2.31417 -22.57675,2.29737 -20.71429,2.14285 -6.39225,0.29598 -11.68923,-0.50331 -16.86024,-1.42857 -8.1559,-1.60816 -17.33952,-0.7352 -25.28261,-2.85714 -10.31292,0.002 -15.78094,-4.26107 -27.85715,-5 -6.32267,-2.62093 -14.63998,-1.42598 -21.14596,-2.14286 -10.64155,-0.98719 -19.83966,-2.64302 -30.43167,-0.71428 -9.15007,0.60549 -17.62553,1.31795 -25.56522,2.85714 -5.83795,1.69495 -14.70187,3.18863 -21.42858,5.71429 -7.30129,3.46156 -14.65611,5.18936 -22.85714,7.14285 -8.60019,0.61602 -17.64048,2.77376 -25.71428,3.57143 -22.46666,2.65436 -33.59023,3.07925 -52.85715,2.85714 -6.50031,-2.89743 -11.52029,1.64473 -17.85714,3.57143 -11.11014,2.13688 -20.78844,4.82171 -32.85714,5.71429 -11.64763,0.39728 -24.94217,-1.31072 -35,2.14286 -6.40805,-0.19783 -13.00246,1.55673 -15.71429,5 -3.68725,0.7228 -6.7008,4.96142 -8.96866,7.21947 -3.10932,-1.8891 -17.34637,0.72557 -17.45991,-2.65115 1.64167,-10.04001 -13.0427,6.2164 -7.14286,-7.42547 3.8585,-4.18264 7.78938,-8.06378 15,-6.42857 6.01833,-2.09891 12.64775,1.04748 17.14286,-2.85714 4.65286,-2.39677 16.28837,-2.36259 10.71429,-9.28572 -3.16433,-2.22598 -6.61689,-4.45861 -8.57143,-8.57142 -4.07435,-8.57336 -11.62174,-18.00421 -15,-26.42858 C 171.69788,361.06027 165.88518,364.77308 155,361.6479 c -5.6471,-1.57345 -18.65409,-1.88209 -22.85714,-7.14286 -4.20306,-5.26077 -14.36822,-10.5999 -17.14286,-15 -4.24889,-3.04631 -9.84375,0.76633 -12.85714,-4.28572 -1.09408,-7.04328 2.67835,-6.48838 2.14285,-14.86645 -1.27469,-7.99445 7.25727,-15.02931 10.46876,-9.21836 5.31611,4.03119 7.75296,12.78741 13.10267,14.08481 1.40196,3.34913 11.22492,-0.58889 9.24168,-5.44221 -1.21561,-8.88396 -1.07077,-12.79418 -5.67025,-14.55778 -5.14202,-3.06677 -10.6794,-2.661 -17.85714,-4.28573 -4.20352,2.91299 -20.755545,2.89323 -22.853972,-0.51087 -2.417923,-3.73747 -7.961196,-4.92127 -7.146029,-11.63198 z"
       id="path3195"
       inkscape:connector-curvature="0"
       sodipodi:nodetypes="cccccccczzzzcccczccccccccccccccccccccccccccccccccccscczcccccccccc" />
  </g>
</svg>
